<svg width="427" height="629" viewBox="0 0 427 629" fill="none" xmlns="http://www.w3.org/2000/svg">
<g clip-path="url(#clip0_15_55478)">
<path d="M0 213.5C0 95.5872 95.5872 0 213.5 0C331.413 0 427 95.5872 427 213.5V629H0V213.5Z" fill="#C38154"/>
<g clip-path="url(#clip1_15_55478)">
<path d="M235.153 323.037H201.299V355.245H235.153V323.037Z" fill="#FBB88E"/>
<g style="mix-blend-mode:multiply">
<path d="M235.124 332.568V323.007H201.21V342.607C207.251 343.553 213.425 343.144 219.29 341.408C225.154 339.672 230.562 336.653 235.124 332.568Z" fill="#BCBEC0"/>
</g>
<path d="M323.973 381.896C322.902 378.284 320.897 375.021 318.162 372.439C315.427 369.857 312.059 368.048 308.4 367.196L235.005 352.496H201.359L127.963 367.196C124.308 368.045 120.942 369.85 118.207 372.426C115.472 375.003 113.465 378.26 112.39 381.866L109.413 411.266H327.129L323.973 381.896Z" fill="#FBB88E"/>
<path d="M218.182 407.919H137.997L150.503 595.85H218.182H285.86L298.396 407.919H218.182Z" fill="#FBB88E"/>
<path d="M327.04 411.296L324.062 381.896C322.984 378.273 320.966 375.002 318.214 372.419C315.462 369.836 312.075 368.034 308.4 367.196L235.005 352.496L216.008 348.911L201.359 352.496L127.963 367.196C124.308 368.045 120.942 369.85 118.207 372.426C115.472 375.003 113.465 378.26 112.39 381.866L109.413 411.266H138.295L150.592 595.85H285.95L298.247 411.296H327.04Z" fill="white"/>
<path d="M215.71 604.843C215.71 604.843 215.144 612.73 214.162 626.564C213.686 633.435 213.12 641.801 212.465 651.392C211.81 660.983 211.214 671.888 210.47 683.719C208.921 707.442 207.641 735.139 205.974 764.807C205.319 779.746 204.634 794.954 203.919 810.55C203.205 826.146 202.431 841.951 201.984 857.786C201.537 873.622 200.942 889.457 200.436 905.023C200.168 912.821 199.929 920.559 199.661 928.208C199.393 935.857 199.364 943.386 199.245 950.795C198.947 965.734 198.679 979.986 198.441 993.58C198.202 1007.17 197.845 1020.05 197.934 1031.91C197.934 1079.36 197.934 1111 197.934 1111L146.513 1112.49C146.513 1112.49 145.352 1080.49 143.535 1032.51C142.999 1020.56 142.88 1007.53 142.612 993.67C142.344 979.806 142.076 965.435 141.808 950.437C141.689 942.947 141.55 935.339 141.391 927.61C141.233 919.882 141.233 912.094 141.391 904.246C141.391 888.501 141.391 872.516 141.213 856.442C141.034 840.368 141.213 824.503 141.391 808.638C141.57 792.773 141.63 777.416 141.749 762.447C142.314 732.569 142.582 704.544 143.267 680.552C143.535 668.601 143.833 657.577 144.071 647.687C144.309 637.798 144.637 629.372 144.845 622.351C145.322 608.398 145.59 600.391 145.59 600.391L215.71 604.843Z" fill="#141C26"/>
<path d="M147.168 596.268L286.932 595.85C286.932 595.85 297.771 661.819 213.596 661.58C213.596 661.461 147.168 668.243 147.168 596.268Z" fill="#141C26"/>
<g style="mix-blend-mode:multiply">
<path d="M216.097 650.765C199.215 645.387 184.238 637.678 175.871 622.799C173.572 618.808 172.121 614.382 171.609 609.801C171.097 605.22 171.534 600.582 172.893 596.178H147.317C147.317 668.153 213.745 661.371 213.745 661.371C238.875 661.371 255.43 655.665 266.536 647.478C250.676 654.67 232.752 655.838 216.097 650.765Z" fill="#D1D3D4"/>
</g>
<path d="M289.046 607.024L292.143 1111.27L240.721 1112.22L224.911 608.219L289.046 607.024Z" fill="#141C26"/>
<path d="M145.232 411.325L133.144 560.923L16.6037 687.394L7.67114 679.029L103.547 552.109L109.175 411.206C109.175 411.206 111.438 391.039 131.982 391.666C136.164 392.82 139.796 395.436 142.226 399.04C144.655 402.645 145.721 407.002 145.232 411.325Z" fill="#FBB88E"/>
<path d="M159.882 238.125C160.537 248.074 155.713 256.44 149.163 256.799C142.612 257.157 136.776 249.449 136.151 239.529C135.526 229.61 140.32 221.214 146.87 220.856C153.421 220.497 159.257 228.206 159.882 238.125Z" fill="#FBB88E"/>
<g style="mix-blend-mode:multiply">
<path d="M152.14 234.659C152.175 234.172 152.175 233.682 152.14 233.195C151.978 231.934 151.627 230.705 151.098 229.55C150.503 228.176 149.401 226.562 147.793 226.353C147.378 226.294 146.957 226.294 146.543 226.353L145.858 226.532C145.69 226.605 145.53 226.695 145.381 226.801C144.592 227.279 143.945 227.96 143.505 228.773C143.012 229.626 142.632 230.54 142.374 231.492C142.09 232.391 141.939 233.327 141.927 234.271C141.927 235.287 141.927 236.272 141.927 237.258C141.927 238.244 142.136 238.961 142.195 239.738C142.255 240.515 142.463 241.262 142.523 241.889C142.582 242.517 142.791 243.085 142.88 243.563C142.969 244.041 143.178 245.027 143.178 245.027C143.178 245.027 142.91 244.549 142.493 243.682C142.221 243.17 141.983 242.641 141.778 242.099C141.54 241.471 141.272 240.754 141.004 239.977C140.736 239.2 140.558 238.304 140.349 237.378C140.141 236.452 140.111 235.466 139.992 234.39C139.907 233.264 140.018 232.132 140.319 231.044C140.59 229.908 141.032 228.82 141.63 227.817C142.258 226.707 143.174 225.789 144.28 225.158C144.59 224.974 144.92 224.824 145.262 224.71L146.185 224.531C146.826 224.425 147.48 224.425 148.121 224.531C149.325 224.788 150.389 225.492 151.098 226.503C151.633 227.295 152.025 228.174 152.259 229.102C152.573 230.412 152.674 231.764 152.557 233.105C152.481 233.638 152.341 234.16 152.14 234.659Z" fill="#BCBEC0"/>
</g>
<g style="mix-blend-mode:multiply">
<path d="M152.14 234.659C152.14 234.659 152.885 233.673 148.686 233.076C148.686 233.076 143.863 233.345 145.947 238.424C146.413 239.512 146.733 240.657 146.9 241.83C147.078 243.473 146.007 245.624 146.9 247.178C147.273 247.602 147.747 247.925 148.277 248.118C148.807 248.31 149.377 248.366 149.935 248.28C150.492 248.193 151.019 247.968 151.467 247.624C151.914 247.28 152.269 246.829 152.498 246.311C152.914 244.698 151.128 241.68 150.294 240.336C149.969 239.86 149.758 239.315 149.676 238.744C149.594 238.172 149.645 237.59 149.823 237.041C150.001 236.492 150.303 235.992 150.705 235.579C151.107 235.166 151.598 234.851 152.14 234.659Z" fill="#BCBEC0"/>
</g>
<g style="mix-blend-mode:multiply">
<path d="M152.557 246.102C152.674 246.182 152.775 246.284 152.855 246.401C153.09 246.675 153.254 247.004 153.331 247.357C153.379 247.594 153.379 247.838 153.331 248.074C153.39 248.34 153.39 248.615 153.331 248.881C153.331 249.15 153.331 249.449 153.123 249.747C152.914 250.046 152.795 250.255 152.646 250.524C152.472 250.773 152.272 251.003 152.051 251.211C151.832 251.407 151.593 251.577 151.336 251.719C150.943 252.041 150.469 252.247 149.967 252.317C149.473 252.391 148.971 252.391 148.478 252.317C148.721 251.914 149 251.534 149.312 251.181C149.443 251.035 149.582 250.895 149.728 250.763C149.841 250.582 149.97 250.411 150.116 250.255C150.237 250.082 150.377 249.921 150.532 249.777C150.661 249.615 150.781 249.446 150.89 249.269C151.146 248.946 151.366 248.596 151.545 248.224C151.652 248.064 151.742 247.894 151.813 247.716C151.813 247.536 151.991 247.357 152.051 247.178C152.239 246.829 152.408 246.47 152.557 246.102Z" fill="#BCBEC0"/>
</g>
<path d="M276.213 238.125C275.558 248.074 280.382 256.44 286.932 256.799C293.483 257.157 299.319 249.449 299.944 239.529C300.569 229.61 295.776 221.214 289.225 220.856C282.674 220.497 276.839 228.206 276.213 238.125Z" fill="#FBB88E"/>
<g style="mix-blend-mode:multiply">
<path d="M283.955 234.659C283.927 234.172 283.927 233.683 283.955 233.195C284.147 231.941 284.497 230.716 284.997 229.55C285.622 228.176 286.724 226.562 288.332 226.353C288.747 226.294 289.168 226.294 289.582 226.353L290.267 226.532C290.431 226.612 290.591 226.702 290.744 226.801C291.533 227.279 292.18 227.96 292.619 228.773C293.112 229.626 293.493 230.54 293.751 231.492C294.02 232.395 294.171 233.329 294.198 234.271C294.198 235.287 294.198 236.272 294.198 237.258C294.198 238.244 293.989 238.961 293.93 239.738C293.87 240.515 293.691 241.262 293.602 241.889C293.513 242.517 293.334 243.085 293.245 243.563C293.155 244.041 292.947 245.027 292.947 245.027C292.947 245.027 293.215 244.549 293.632 243.682C294.049 242.816 294.138 242.726 294.346 242.099C294.555 241.471 294.853 240.754 295.121 239.977C295.389 239.2 295.567 238.304 295.776 237.378C295.984 236.452 296.014 235.466 296.133 234.39C296.218 233.264 296.107 232.132 295.805 231.044C295.535 229.908 295.093 228.82 294.495 227.817C293.858 226.714 292.944 225.798 291.845 225.158C291.535 224.974 291.205 224.824 290.863 224.71L289.94 224.531C289.299 224.425 288.645 224.425 288.004 224.531C286.804 224.798 285.744 225.5 285.027 226.503C284.48 227.288 284.086 228.17 283.866 229.102C283.552 230.412 283.451 231.764 283.568 233.105C283.635 233.637 283.765 234.159 283.955 234.659Z" fill="#BCBEC0"/>
</g>
<g style="mix-blend-mode:multiply">
<path d="M283.955 234.659C283.955 234.659 283.21 233.673 287.409 233.076C287.409 233.076 292.232 233.345 290.148 238.424C289.682 239.512 289.362 240.657 289.195 241.83C289.017 243.473 290.088 245.624 289.195 247.178C288.822 247.602 288.348 247.925 287.818 248.118C287.288 248.31 286.718 248.366 286.16 248.28C285.603 248.193 285.076 247.968 284.628 247.624C284.181 247.28 283.826 246.829 283.598 246.311C283.181 244.698 284.967 241.68 285.801 240.336C286.126 239.86 286.337 239.315 286.419 238.744C286.501 238.172 286.45 237.59 286.272 237.041C286.094 236.492 285.792 235.992 285.39 235.579C284.988 235.166 284.497 234.851 283.955 234.659Z" fill="#BCBEC0"/>
</g>
<g style="mix-blend-mode:multiply">
<path d="M283.538 246.102C283.421 246.182 283.32 246.284 283.24 246.401C283.005 246.675 282.841 247.004 282.764 247.357C282.666 247.583 282.615 247.827 282.615 248.074C282.572 248.341 282.572 248.614 282.615 248.881C282.615 249.15 282.615 249.449 282.823 249.747C283.032 250.046 283.151 250.255 283.3 250.524C283.475 250.773 283.674 251.003 283.895 251.211C284.109 251.4 284.338 251.57 284.58 251.719C284.987 252.037 285.469 252.243 285.98 252.317C286.473 252.391 286.975 252.391 287.468 252.317C287.226 251.914 286.946 251.534 286.635 251.181L286.218 250.763C286.106 250.582 285.976 250.411 285.831 250.255C285.709 250.082 285.569 249.921 285.414 249.777C285.275 249.623 285.155 249.452 285.056 249.269C284.8 248.946 284.58 248.596 284.401 248.224C284.294 248.064 284.205 247.894 284.133 247.716C284.133 247.536 283.955 247.357 283.895 247.178C283.758 246.826 283.639 246.467 283.538 246.102Z" fill="#BCBEC0"/>
</g>
<path d="M289.493 165.224C288.204 154.326 283.693 144.066 276.541 135.764C270.781 129.81 264.055 124.88 256.651 121.184C244.601 115.39 231.41 112.382 218.048 112.382C204.686 112.382 191.494 115.39 179.444 121.184C172.029 124.877 165.294 129.808 159.524 135.764C152.372 144.066 147.861 154.326 146.572 165.224C146.572 165.224 146.066 240.097 152.527 272.932C153.501 280.179 157.158 286.792 162.77 291.457L193.438 322.38C193.438 322.38 197.964 329.67 218.062 328.355C239.888 329.7 244.86 321.065 244.86 321.065L273.146 291.576C278.759 286.912 282.416 280.299 283.389 273.052C289.999 240.097 289.493 165.224 289.493 165.224Z" fill="#FBB88E"/>
<path d="M278.625 264.357C275.38 271.827 270.169 278.669 261.534 279.296C252.899 279.924 248.046 271.229 240.453 269.078C233.055 267.387 225.372 267.387 217.973 269.078C209.95 267.379 201.651 267.491 193.677 269.407C183.315 272.394 179.265 281.358 167.534 274.874C164.423 273.224 161.677 270.958 159.465 268.212C158.752 266.948 157.946 265.74 157.053 264.596H156.22H151.188C151.634 267.584 152.11 270.572 152.617 273.171C153.59 280.418 157.247 287.031 162.859 291.695L193.438 322.38C193.438 322.38 197.964 329.67 218.062 328.355C239.888 329.7 244.86 321.065 244.86 321.065L273.146 291.576C278.759 286.912 282.416 280.298 283.389 273.052C283.895 270.423 284.372 267.524 284.818 264.477L278.625 264.357Z" fill="#291200"/>
<path d="M181.26 211.384C181.273 212.607 181.647 213.797 182.337 214.805C183.026 215.813 183.999 216.592 185.131 217.043C186.263 217.494 187.503 217.596 188.694 217.337C189.884 217.078 190.971 216.469 191.815 215.588C192.659 214.707 193.223 213.594 193.434 212.39C193.646 211.186 193.495 209.947 193.002 208.829C192.508 207.711 191.695 206.767 190.664 206.115C189.634 205.463 188.433 205.134 187.215 205.17C185.609 205.217 184.086 205.894 182.972 207.056C181.859 208.218 181.244 209.772 181.26 211.384Z" fill="#291200"/>
<path d="M180.635 208.845C180.676 209.386 180.874 209.904 181.204 210.333C181.535 210.763 181.984 211.086 182.495 211.263C183.007 211.439 183.559 211.462 184.083 211.327C184.607 211.193 185.08 210.907 185.444 210.505C185.808 210.104 186.047 209.604 186.132 209.068C186.216 208.532 186.142 207.983 185.918 207.488C185.695 206.994 185.332 206.576 184.875 206.286C184.418 205.996 183.886 205.847 183.345 205.857C182.968 205.864 182.596 205.948 182.253 206.105C181.91 206.261 181.602 206.485 181.348 206.765C181.095 207.045 180.9 207.374 180.778 207.731C180.655 208.089 180.607 208.468 180.635 208.845Z" fill="white"/>
<path d="M184.833 212.49C184.837 212.663 184.875 212.833 184.944 212.991C185.014 213.149 185.114 213.292 185.238 213.411C185.363 213.53 185.509 213.624 185.67 213.686C185.83 213.749 186.001 213.779 186.173 213.775C186.521 213.775 186.854 213.636 187.1 213.39C187.345 213.143 187.483 212.809 187.483 212.46C187.483 212.112 187.345 211.777 187.1 211.531C186.854 211.284 186.521 211.146 186.173 211.146C185.996 211.142 185.82 211.174 185.656 211.24C185.491 211.306 185.342 211.405 185.217 211.53C185.091 211.656 184.993 211.806 184.927 211.971C184.861 212.136 184.829 212.312 184.833 212.49Z" fill="white"/>
<path d="M198.232 195.759C199.167 193.909 199.359 191.77 198.768 189.783C188.939 186.653 178.291 187.401 168.993 191.874C168.775 193.008 168.889 194.181 169.32 195.251L170.779 198.238C171.076 198.575 171.429 198.858 171.822 199.075C179.562 195.187 188.522 194.531 196.743 197.252C197.395 196.94 197.921 196.413 198.232 195.759Z" fill="#291200"/>
<path d="M254.805 211.384C254.793 212.607 254.418 213.797 253.728 214.805C253.039 215.813 252.066 216.592 250.934 217.043C249.802 217.494 248.562 217.596 247.371 217.337C246.181 217.078 245.094 216.469 244.25 215.588C243.406 214.707 242.842 213.594 242.631 212.39C242.42 211.186 242.57 209.947 243.064 208.829C243.557 207.711 244.371 206.767 245.401 206.115C246.432 205.463 247.632 205.134 248.85 205.17C250.456 205.217 251.979 205.894 253.093 207.056C254.206 208.218 254.821 209.772 254.805 211.384Z" fill="#291200"/>
<path d="M255.46 208.845C255.454 209.396 255.285 209.932 254.974 210.387C254.664 210.841 254.226 211.192 253.716 211.396C253.206 211.6 252.647 211.647 252.11 211.531C251.574 211.416 251.083 211.143 250.702 210.747C250.32 210.351 250.064 209.851 249.966 209.309C249.869 208.767 249.934 208.208 250.153 207.703C250.373 207.198 250.737 206.77 251.199 206.474C251.662 206.177 252.202 206.025 252.75 206.037C253.48 206.052 254.173 206.356 254.681 206.882C255.188 207.408 255.468 208.113 255.46 208.845Z" fill="white"/>
<path d="M251.262 212.49C251.258 212.663 251.22 212.833 251.151 212.991C251.081 213.149 250.982 213.292 250.857 213.411C250.733 213.53 250.586 213.624 250.426 213.686C250.265 213.749 250.094 213.779 249.922 213.775C249.574 213.775 249.241 213.636 248.995 213.39C248.75 213.143 248.612 212.809 248.612 212.46C248.612 212.112 248.75 211.777 248.995 211.531C249.241 211.284 249.574 211.146 249.922 211.146C250.099 211.142 250.275 211.174 250.439 211.24C250.604 211.306 250.753 211.405 250.878 211.53C251.004 211.656 251.102 211.806 251.168 211.971C251.234 212.136 251.266 212.312 251.262 212.49Z" fill="white"/>
<path d="M237.952 195.759C237.018 193.909 236.826 191.77 237.416 189.783C247.245 186.653 257.893 187.401 267.191 191.874C267.41 193.008 267.296 194.181 266.864 195.251L265.405 198.238C265.108 198.575 264.755 198.858 264.363 199.075C256.622 195.187 247.662 194.531 239.441 197.252C238.789 196.94 238.263 196.413 237.952 195.759Z" fill="#291200"/>
<path d="M241.763 274.187C241.287 284.854 230.866 293.399 217.943 293.399C205.021 293.399 194.719 284.854 194.123 274.187H241.763Z" fill="white"/>
<path d="M194.332 274.187C194.332 274.187 197.309 273.649 201.746 273.261C206.182 272.873 212.107 272.574 218.033 272.544C223.958 272.514 229.943 272.843 234.349 273.261C238.756 273.679 241.763 274.187 241.763 274.187C241.763 274.187 238.786 274.725 234.349 275.113C229.913 275.502 223.988 275.801 218.033 275.801C212.078 275.801 206.123 275.532 201.746 275.113C197.369 274.695 194.332 274.187 194.332 274.187Z" fill="#D59F7E"/>
<path d="M241.763 274.187C241.763 274.187 241.763 274.456 241.763 274.934C241.836 275.659 241.836 276.39 241.763 277.115C241.522 279.799 240.633 282.383 239.173 284.644C238.208 286.183 237.047 287.59 235.719 288.827C234.23 290.203 232.568 291.378 230.776 292.323C228.896 293.346 226.895 294.129 224.821 294.653C222.632 295.16 220.398 295.44 218.152 295.49C216.901 295.49 216.097 295.49 214.876 295.251C211.569 294.867 208.366 293.853 205.438 292.263C203.64 291.329 201.977 290.153 200.495 288.767C199.167 287.53 198.006 286.124 197.041 284.585C195.587 282.332 194.698 279.758 194.451 277.085C194.378 276.35 194.378 275.61 194.451 274.874C194.451 274.396 194.451 274.127 194.451 274.127L194.629 274.874C194.778 275.352 194.927 276.04 195.255 276.906C196.073 279.207 197.326 281.327 198.947 283.15C200.011 284.337 201.188 285.418 202.46 286.377C203.902 287.39 205.437 288.26 207.046 288.977C208.766 289.736 210.563 290.307 212.405 290.68C213.328 290.885 214.263 291.034 215.204 291.128C216.038 291.128 217.318 291.128 218.182 291.128C220.122 291.127 222.058 290.927 223.958 290.53C227.535 289.805 230.922 288.34 233.903 286.228C235.182 285.277 236.359 284.196 237.416 283.001C239.047 281.186 240.302 279.063 241.108 276.757C241.436 275.92 241.585 275.203 241.734 274.725L241.763 274.187Z" fill="#D59F7E"/>
<path d="M223.988 297.671C223.988 297.671 223.243 297.671 222.142 297.671H218.033H213.953C212.822 297.671 212.078 297.671 212.078 297.671V298.119C212.588 298.938 213.22 299.674 213.953 300.3C214.522 300.789 215.166 301.182 215.859 301.465C216.203 301.616 216.562 301.726 216.931 301.794H218.033L219.164 301.645C219.532 301.587 219.892 301.487 220.236 301.346C220.93 301.063 221.573 300.669 222.142 300.181C222.861 299.549 223.483 298.814 223.988 298V297.671Z" fill="#D59F7E"/>
<path d="M147.614 114.76C147.614 114.76 132.429 124.232 134.573 138.662C134.573 138.662 130.672 157.067 142.791 167.793C144.131 186.407 150.979 258.382 151.396 264.477H157.351L154.135 188.289C154.078 180.016 156.304 171.887 160.567 164.805C177.896 140.634 220.355 160.951 220.355 160.951C234.498 155.334 258.408 148.582 274.129 160.563C280.918 165.732 284.372 176.726 284.312 184.793L278.625 264.357H284.789C286.635 253.572 296.699 183.688 296.401 171.737C296.401 171.737 307.209 131.163 293.215 107.022C293.215 107.022 293.215 110.667 283.895 114.76C277.644 111.718 271.667 108.14 266.03 104.064C261.536 101.015 257.522 97.3093 254.12 93.0692C254.12 93.0692 233.278 59.7258 178.521 67.0458C178.521 67.0458 191.92 72.6329 194.212 79.5048C194.212 79.5048 173.965 67.0458 143.595 80.7895C143.595 80.7895 164.735 81.2078 170.392 91.0973C170.392 91.0973 147.346 86.3766 133.739 102.69C133.828 102.69 148.001 106.634 147.614 114.76Z" fill="#291200"/>
<path d="M231.253 257.336L229.109 258.412C228.424 258.77 227.65 258.98 226.906 259.278C226.145 259.558 225.369 259.798 224.583 259.995C223.817 260.239 223.029 260.409 222.231 260.503C221.425 260.654 220.609 260.743 219.789 260.772C218.976 260.817 218.161 260.817 217.348 260.772C216.544 260.772 215.71 260.772 214.876 260.533C214.053 260.377 213.238 260.177 212.435 259.936C211.624 259.687 210.837 259.367 210.083 258.98C209.303 258.604 208.573 258.132 207.909 257.575C207.189 257.052 206.548 256.428 206.003 255.723C205.431 255.031 204.951 254.268 204.574 253.452C204.234 252.628 203.955 251.779 203.741 250.913C203.602 250.043 203.523 249.164 203.502 248.283C203.521 247.422 203.601 246.564 203.741 245.714L204.336 243.234C205.448 238.255 206.639 233.275 207.909 228.295C209.189 223.336 210.559 218.436 212.107 213.566C211.512 218.645 210.767 223.694 209.874 228.714C209.011 233.733 208.028 238.752 206.897 243.652L206.42 245.774C206.271 246.491 206.42 247.208 206.212 247.925C206.003 248.642 206.212 249.299 206.361 250.016C206.51 250.733 206.718 251.331 206.986 251.958C207.274 252.585 207.634 253.177 208.058 253.721C208.444 254.289 208.917 254.793 209.457 255.215C209.986 255.7 210.577 256.112 211.214 256.44C211.825 256.824 212.474 257.144 213.15 257.396C213.841 257.656 214.547 257.875 215.264 258.053C215.978 258.263 216.752 258.322 217.497 258.472C218.241 258.621 218.985 258.472 219.76 258.651C220.523 258.696 221.289 258.696 222.052 258.651C222.826 258.651 223.571 258.651 224.345 258.442C225.117 258.383 225.884 258.263 226.638 258.083C227.411 257.96 228.177 257.79 228.93 257.575L231.253 257.336Z" fill="#CF9977"/>
<path d="M327.039 411.295L324.062 381.896C322.984 378.273 320.966 375.002 318.214 372.419C315.462 369.836 312.075 368.034 308.4 367.196L249.058 355.245V628.715H298.366L298.158 411.116L327.039 411.295Z" fill="#141C26"/>
<path d="M185.667 628.745V355.663L127.963 367.196C124.308 368.045 120.942 369.85 118.207 372.426C115.472 375.003 113.465 378.26 112.39 381.866L109.413 411.266H138.295L138.086 628.715L185.667 628.745Z" fill="#141C26"/>
<path d="M367.951 516.584L326.831 389.246C326.831 389.246 324.568 369.049 304.023 369.706C304.023 369.706 284.729 374.397 287.26 397.343L338.533 525.547C338.533 525.547 344.488 543.892 359.971 537.498C359.971 537.498 373.37 533.166 367.951 516.584Z" fill="#FBB88E"/>
<path d="M264.333 636.961C262.287 642.966 259.84 648.825 257.008 654.499C256.94 654.7 256.918 654.912 256.941 655.123C256.965 655.333 257.035 655.535 257.146 655.715C257.257 655.895 257.407 656.048 257.583 656.163C257.76 656.279 257.961 656.353 258.169 656.381C258.169 656.381 259.36 656.65 260.551 654.917C260.551 654.917 264.72 648.344 269.246 639.351L266.03 650.197C266.007 650.552 266.112 650.904 266.325 651.189C266.538 651.474 266.845 651.673 267.191 651.75C267.622 651.883 268.087 651.842 268.487 651.635C268.888 651.429 269.192 651.073 269.335 650.645L274.635 640.068C274.635 640.068 283.776 628.625 281.186 622.53C270.228 608.368 254.15 618.706 254.15 618.706C251.708 619.692 249.237 620.558 246.825 621.484L244.89 622.202C241.912 623.247 242.389 625.398 242.389 625.398C242.613 626.072 243.068 626.643 243.674 627.01C244.28 627.376 244.996 627.515 245.694 627.4L258.944 624.412L246.17 647.09C246.17 647.09 243.907 650.884 246.17 652.049C246.17 652.049 247.391 653.155 249.832 649.39L261.177 632.42C261.177 632.42 252.869 648.972 249.803 653.872C249.689 654.191 249.66 654.534 249.72 654.867C249.779 655.201 249.924 655.513 250.141 655.773C250.358 656.033 250.638 656.231 250.955 656.348C251.272 656.465 251.614 656.498 251.946 656.441C251.946 656.441 253.644 656.441 255.4 652.677C255.4 652.677 263.499 638.963 264.333 636.842" fill="#FBB88E"/>
<path d="M362.531 537.499L271.003 631.075L262.07 618.497L335.942 517.301C335.942 517.301 347.495 500.241 362.591 508.338C362.531 508.338 376.883 523.217 362.531 537.499Z" fill="#FBB88E"/>
<path d="M256.979 606.008C256.979 606.008 259.658 628.386 285.116 635.885V683.69H236.642C236.642 683.69 222.052 620.17 256.979 606.008Z" fill="#141C26"/>
<path d="M367.951 516.584L328.111 388.529C328.111 388.529 322.901 365.971 304.023 369.706C304.023 369.706 273.772 373.56 280.62 403.617L331.565 529.969C331.565 529.969 341.004 550.286 359.852 537.289C359.971 537.499 373.37 533.166 367.951 516.584Z" fill="#141C26"/>
<path d="M185.667 355.245V537.498C160.835 474.098 157.41 422.828 157.41 422.828L173.578 415.15L152.468 396.058C152.468 396.058 153.182 357.904 185.667 355.245Z" fill="#2C3C45"/>
<path d="M249.058 355.245V537.498C273.891 474.098 277.315 422.828 277.315 422.828L261.117 415.15L282.258 396.058C282.258 396.058 281.603 357.904 249.058 355.245Z" fill="#2C3C45"/>
<path d="M216.008 348.941H201.269L173.608 358.113L201.269 376.608L216.008 348.941Z" fill="white"/>
<path d="M173.608 358.113L201.269 376.608L216.008 348.941L201.507 368.78L173.608 358.113Z" fill="#B6E4FA"/>
<path d="M215.025 348.941H235.034L262.785 358.113L235.243 373.709L215.025 348.941Z" fill="white"/>
<path d="M262.785 358.113L235.243 373.709L215.025 348.941L235.034 365.852L262.785 358.113Z" fill="#B6E4FA"/>
<path d="M222.648 373.74H212.673V595.879H222.648V373.74Z" fill="#E6E7E8"/>
<path d="M212.673 364.627C209.929 360.598 206.307 357.248 202.083 354.83C197.858 352.413 193.14 350.992 188.287 350.674C188.287 350.674 177.628 374.098 191.682 386.856C191.682 386.856 207.939 383.718 212.673 374.038V364.627Z" fill="#141C26"/>
<g style="mix-blend-mode:multiply">
<path d="M194.51 382.314C184.357 373.112 187.096 358.412 189.419 350.823L188.287 350.674C188.287 350.674 177.628 374.098 191.682 386.856C191.682 386.856 207.939 383.718 212.673 374.038V373.441C206.242 380.073 194.51 382.314 194.51 382.314Z" fill="#A7A9AC"/>
</g>
<path d="M211.661 366.688L210.976 366.33L210.202 365.971C209.873 365.795 209.535 365.635 209.189 365.493L207.998 365.015L206.629 364.507C205.706 364.119 204.664 363.82 203.651 363.461C203.155 363.271 202.648 363.111 202.133 362.983L200.644 362.505C200.167 362.356 199.721 362.177 199.244 362.057L197.994 361.699C196.446 361.221 195.403 360.772 195.403 360.772C195.403 360.772 196.505 360.772 198.143 360.922C199.086 360.984 200.022 361.124 200.942 361.34C202.01 361.553 203.064 361.832 204.098 362.177L205.646 362.744C206.152 362.924 206.629 363.193 207.105 363.402C207.968 363.809 208.794 364.289 209.576 364.836C209.9 365.043 210.208 365.273 210.499 365.523L211.155 366.121C211.335 366.299 211.504 366.488 211.661 366.688Z" fill="#000512"/>
<path d="M211.661 371.648L211.155 372.245L210.5 372.813C210.232 373.022 209.934 373.291 209.576 373.53C208.8 374.078 207.972 374.548 207.105 374.934C206.639 375.196 206.151 375.416 205.646 375.592L204.187 376.159C203.154 376.504 202.099 376.784 201.031 376.996C200.111 377.212 199.175 377.352 198.232 377.414C197.323 377.52 196.408 377.57 195.493 377.564C196.339 377.217 197.204 376.917 198.083 376.667L199.334 376.279C199.81 376.279 200.257 375.98 200.733 375.831C201.21 375.681 201.716 375.502 202.222 375.383C202.738 375.245 203.245 375.075 203.741 374.875C204.753 374.516 205.795 374.217 206.718 373.859L208.088 373.351C208.505 373.142 208.921 372.992 209.279 372.843L210.291 372.395L211.065 372.006L211.661 371.648Z" fill="#000512"/>
<path d="M196.982 368.75H197.607L199.304 368.601H201.627C202.49 368.601 203.413 368.601 204.306 368.601H206.986C207.85 368.601 208.653 368.601 209.338 368.601C210.708 368.601 211.661 368.84 211.661 368.84C210.919 369.07 210.163 369.25 209.398 369.377C208.713 369.527 207.909 369.646 207.046 369.766H205.706H204.187C203.264 369.766 202.341 369.766 201.478 369.766C200.688 369.689 199.902 369.569 199.125 369.407C198.391 369.26 197.673 369.04 196.982 368.75Z" fill="#000512"/>
<path d="M222.648 364.627C225.392 360.598 229.014 357.248 233.238 354.83C237.463 352.413 242.181 350.992 247.034 350.674C247.034 350.674 257.693 374.098 243.639 386.856C243.639 386.856 227.382 383.718 222.648 374.038V364.627Z" fill="#141C26"/>
<g style="mix-blend-mode:multiply">
<path d="M240.811 382.314C250.964 373.112 248.225 358.412 245.902 350.823L247.034 350.674C247.034 350.674 257.693 374.098 243.639 386.856C243.639 386.856 227.382 383.718 222.648 374.038V373.441C229.079 380.073 240.811 382.314 240.811 382.314Z" fill="#A7A9AC"/>
</g>
<path d="M223.66 366.688L224.345 366.33L225.119 365.971C225.448 365.795 225.786 365.635 226.131 365.493L227.322 365.015L228.692 364.507C229.615 364.119 230.657 363.82 231.67 363.461C232.166 363.271 232.673 363.111 233.188 362.983L234.677 362.505L236.047 362.057L237.327 361.699C238.875 361.221 239.917 360.772 239.917 360.772C239.917 360.772 238.816 360.772 237.178 360.922C236.235 360.987 235.3 361.127 234.379 361.34C233.311 361.553 232.257 361.832 231.223 362.177L229.675 362.744C229.169 362.924 228.692 363.193 228.216 363.402C227.353 363.809 226.527 364.289 225.744 364.836C225.421 365.043 225.113 365.273 224.821 365.523L224.166 366.121C223.986 366.299 223.817 366.488 223.66 366.688Z" fill="#000512"/>
<path d="M223.66 371.648L224.166 372.245L224.821 372.813C225.089 373.022 225.387 373.291 225.744 373.53C226.521 374.078 227.349 374.548 228.216 374.934C228.682 375.196 229.17 375.416 229.675 375.592L231.223 376.159C232.257 376.504 233.311 376.784 234.379 376.996C235.3 377.209 236.235 377.349 237.178 377.414C238.087 377.52 239.002 377.57 239.917 377.564C239.071 377.217 238.206 376.917 237.327 376.667L236.047 376.279L234.677 375.831C234.201 375.831 233.694 375.502 233.188 375.383C232.672 375.245 232.165 375.075 231.67 374.875C230.657 374.516 229.615 374.217 228.692 373.859L227.322 373.351C226.906 373.142 226.489 372.992 226.131 372.843L225.119 372.395L224.345 372.006L223.66 371.648Z" fill="#000512"/>
<path d="M238.339 368.75H237.684L236.017 368.601H233.694C232.831 368.601 231.908 368.601 231.015 368.601H228.335C227.471 368.601 226.667 368.601 225.983 368.601C224.613 368.601 223.66 368.84 223.66 368.84C224.402 369.07 225.157 369.25 225.923 369.377C226.608 369.527 227.412 369.646 228.275 369.766H229.615H230.985C231.908 369.766 232.831 369.766 233.694 369.766C234.484 369.689 235.27 369.569 236.047 369.407C236.832 369.27 237.6 369.05 238.339 368.75Z" fill="#000512"/>
<path d="M220.653 361.131H214.698C212.281 361.131 210.321 363.097 210.321 365.523V372.724C210.321 375.149 212.281 377.116 214.698 377.116H220.653C223.07 377.116 225.03 375.149 225.03 372.724V365.523C225.03 363.097 223.07 361.131 220.653 361.131Z" fill="#141C26"/>
<g style="mix-blend-mode:multiply">
<path d="M223.065 375.652H217.675C216.677 375.701 215.7 375.351 214.958 374.679C214.216 374.007 213.769 373.068 213.715 372.066V366.091C213.738 365.592 213.859 365.103 214.07 364.652C214.282 364.2 214.58 363.795 214.948 363.459C215.316 363.123 215.746 362.863 216.214 362.695C216.682 362.526 217.179 362.452 217.675 362.476H223.065C223.352 362.445 223.641 362.445 223.928 362.476C223.523 362.001 223.021 361.619 222.455 361.356C221.89 361.094 221.276 360.956 220.653 360.952H214.698C213.537 360.952 212.424 361.415 211.603 362.238C210.782 363.062 210.321 364.179 210.321 365.344V372.544C210.321 373.709 210.782 374.826 211.603 375.65C212.424 376.474 213.537 376.936 214.698 376.936H220.653C221.276 376.933 221.89 376.795 222.455 376.532C223.021 376.269 223.523 375.887 223.928 375.413C223.65 375.524 223.36 375.604 223.065 375.652Z" fill="#A7A9AC"/>
</g>
<path d="M285.325 619.572L297.026 607.143L276.69 590.322L266.268 604.125L285.325 619.572Z" fill="white"/>
<path d="M362.531 508.338C345.411 495.76 331.268 510.28 331.268 510.28L267.668 598.718C272.789 602.632 286.307 613.298 291.012 617.72L362.472 537.558C376.883 523.217 362.531 508.338 362.531 508.338Z" fill="#141C26"/>
<path d="M30.9851 683.66L137.997 560.474L152.468 411.296C153.212 394.863 132.042 391.666 132.042 391.666C111.497 391.039 109.234 411.206 109.234 411.206L97.6517 550.376L3.65149 661.61L30.9851 683.66Z" fill="#141C26"/>
</g>
</g>
<defs>
<clipPath id="clip0_15_55478">
<path d="M0 213.5C0 95.5872 95.5872 0 213.5 0C331.413 0 427 95.5872 427 213.5V629H0V213.5Z" fill="white"/>
</clipPath>
<clipPath id="clip1_15_55478">
<rect width="388" height="1096" fill="white" transform="translate(-16 66)"/>
</clipPath>
</defs>
</svg>
