<svg width="315" height="370" viewBox="0 0 315 370" fill="none" xmlns="http://www.w3.org/2000/svg">
<path d="M221.147 352.478C221.147 356.741 198.104 360.2 169.698 360.2C141.292 360.2 118.266 356.706 118.266 352.478C118.266 348.25 141.292 344.739 169.698 344.739C198.104 344.739 221.147 348.198 221.147 352.478Z" fill="#7E5C41"/>
<path d="M176.302 82.0773H165.208V96.788H176.302V82.0773Z" fill="#FBB88E"/>
<g style="mix-blend-mode:multiply">
<path d="M176.302 86.4276V82.0773H165.243V91.0225C169.559 92.0009 173.28 89.9218 176.302 86.4276Z" fill="#BCBEC0"/>
</g>
<path d="M205.424 105.505C205.072 104.326 204.415 103.26 203.519 102.417C202.624 101.573 201.521 100.981 200.323 100.7L176.249 95.8961H165.243L141.204 100.7C140.006 100.981 138.904 101.573 138.008 102.417C137.112 103.26 136.455 104.326 136.103 105.505L135.09 115.078H206.42L205.424 105.505Z" fill="#FBB88E"/>
<path d="M170.746 113.995H144.471L148.577 175.35H170.746H192.916L197.021 113.995H170.746Z" fill="#FBB88E"/>
<path d="M206.403 115.078L205.424 105.505C205.072 104.326 204.415 103.26 203.519 102.417C202.624 101.573 201.521 100.981 200.323 100.7L176.249 95.8961L170.03 94.7256L165.226 95.8961L141.187 100.7C139.989 100.981 138.886 101.573 137.991 102.417C137.095 103.26 136.438 104.326 136.086 105.505L135.073 115.078H144.541L148.559 175.35H192.916L196.951 115.078H206.403Z" fill="white"/>
<path d="M157.399 348.635L160.229 347.447V345.892L146.515 351.133C145.182 351.772 143.707 352.056 142.232 351.958C140.757 351.86 139.332 351.384 138.095 350.574L137.553 349.683C137.064 350.067 137.274 351.43 138.13 352.164C139.383 352.927 140.808 353.362 142.273 353.429C143.739 353.497 145.198 353.193 146.515 352.548L154.202 349.334L157.399 348.041V348.635Z" fill="black"/>
<path d="M160.352 342.433L157.329 343.219C156.578 343.219 157.329 342.101 157.329 342.101C157.696 341.332 155.443 341.14 155.443 341.14C154.412 341.053 154.097 341.56 154.097 341.56C152.577 343.673 144.943 346.573 144.943 346.573L139.16 348.32C139.16 348.32 136.313 349.142 138.025 350.522C139.262 351.331 140.687 351.808 142.162 351.906C143.637 352.004 145.112 351.719 146.445 351.081L157.399 346.905L160.159 345.857L160.352 342.433Z" fill="#00000D"/>
<path d="M186.207 348.635L183.36 347.447V345.892L197.091 351.133C198.424 351.772 199.9 352.056 201.375 351.958C202.85 351.86 204.275 351.384 205.512 350.574L206.053 349.683C206.542 350.067 206.333 351.43 205.477 352.164C204.224 352.927 202.799 353.362 201.333 353.429C199.868 353.497 198.409 353.193 197.091 352.548L189.404 349.334L186.207 348.041V348.635Z" fill="black"/>
<path d="M183.29 342.433L186.295 343.219C187.063 343.219 186.295 342.101 186.295 342.101C185.91 341.332 188.181 341.14 188.181 341.14C189.212 341.053 189.527 341.56 189.527 341.56C191.046 343.673 198.663 346.573 198.663 346.573L204.464 348.32C204.464 348.32 207.294 349.142 205.599 350.522C204.362 351.331 202.937 351.808 201.462 351.906C199.987 352.004 198.512 351.719 197.178 351.081L186.207 346.888L183.447 345.84L183.29 342.433Z" fill="#00000D"/>
<path d="M146.935 176.992C146.935 176.992 146.935 179.595 146.69 184.155C146.69 186.461 146.533 189.238 146.445 192.435C146.358 195.632 146.271 199.196 146.183 203.11C145.956 210.936 145.869 220.073 145.677 229.856C145.677 234.748 145.677 239.797 145.572 244.933C145.467 250.069 145.45 255.275 145.572 260.499C145.694 265.722 145.572 270.981 145.572 276.082C145.572 278.65 145.572 281.183 145.572 283.699C145.572 286.215 145.659 288.713 145.712 291.159C145.799 296.05 145.886 300.784 145.974 305.274C146.061 309.764 146.096 314.009 146.271 317.923L147.232 344.128L164.073 343.621C164.073 343.621 164.073 333.296 164.073 317.8C164.073 313.939 164.073 309.729 164.247 305.292C164.422 300.854 164.405 296.172 164.509 291.316C164.509 288.905 164.51 286.442 164.649 283.943C164.789 281.445 164.806 278.93 164.894 276.379C165.069 271.295 165.226 266.124 165.4 260.953C165.575 255.782 165.82 250.628 166.029 245.527C166.239 240.426 166.484 235.447 166.711 230.59C167.252 220.912 167.672 211.862 168.178 204.123C168.423 200.262 168.632 196.716 168.842 193.641C169.052 190.566 169.244 187.771 169.384 185.535L169.908 178.442L146.935 176.992Z" fill="#141C26"/>
<path d="M147.476 175.472L193.265 175.35C193.265 175.35 196.759 196.89 169.244 196.768C169.244 196.768 147.476 198.987 147.476 175.472Z" fill="#141C26"/>
<g style="mix-blend-mode:multiply">
<path d="M170.047 193.274C164.509 191.527 159.565 188.994 156.858 184.137C156.091 182.831 155.607 181.379 155.435 179.875C155.264 178.371 155.409 176.847 155.862 175.402H147.476C147.476 198.917 169.244 196.698 169.244 196.698C177.472 196.698 182.923 194.829 186.539 192.156C181.358 194.509 175.499 194.906 170.047 193.274Z" fill="#D1D3D4"/>
</g>
<path d="M193.964 179.001L172.948 179.385L178.119 343.953L194.977 343.638L193.964 179.001Z" fill="#141C26"/>
<path d="M146.83 115.096L142.882 164.012L104.745 205.311L101.792 202.568L133.238 161.129L135.09 115.131C135.271 113.308 136.144 111.625 137.528 110.426C138.912 109.227 140.703 108.604 142.532 108.684C143.895 109.066 145.076 109.921 145.864 111.097C146.652 112.272 146.995 113.69 146.83 115.096Z" fill="#FBB88E"/>
<path d="M104.955 204.962C104.308 206.007 103.414 206.877 102.352 207.495C101.659 208.032 101.067 208.689 100.605 209.434C100.573 209.525 100.522 209.608 100.455 209.678C100.389 209.747 100.308 209.801 100.218 209.836C100.128 209.871 100.032 209.886 99.9356 209.88C99.8395 209.874 99.7458 209.847 99.6611 209.801C99.6611 209.801 98.7526 209.469 99.7834 207.722L100.867 206.551C99.7655 206.679 98.7093 207.062 97.7815 207.668C96.8536 208.275 96.0795 209.089 95.5205 210.046C95.4858 210.187 95.415 210.317 95.3149 210.423C95.2149 210.528 95.089 210.606 94.9497 210.648C94.8105 210.691 94.6626 210.696 94.5207 210.664C94.3788 210.632 94.2476 210.563 94.1402 210.465C94.1402 210.465 93.7209 209.958 94.3324 208.718L97.32 203.651C97.32 203.651 97.6345 202.725 101.286 201.904C102.06 201.768 102.816 201.545 103.54 201.24L104.955 204.962Z" fill="#FBB88E"/>
<path d="M206.403 115.078L205.424 105.505C205.072 104.326 204.415 103.26 203.519 102.417C202.624 101.573 201.521 100.981 200.323 100.7L180.896 96.822V186.164H197.056V115.096L206.403 115.078Z" fill="#141C26"/>
<path d="M160.09 186.164V97.0666L141.187 100.84C139.989 101.121 138.886 101.713 137.991 102.557C137.095 103.4 136.438 104.465 136.086 105.644L135.073 115.218H144.541V186.234L160.09 186.164Z" fill="#141C26"/>
<path d="M219.837 149.477L206.368 107.898C206.174 106.084 205.293 104.412 203.906 103.226C202.519 102.041 200.73 101.431 198.908 101.521C197.03 102.069 195.426 103.3 194.411 104.972C193.395 106.644 193.043 108.635 193.422 110.553L210.176 152.359C210.176 152.359 212.15 158.334 217.164 156.238C217.199 156.255 221.584 154.875 219.837 149.477Z" fill="#FBB88E"/>
<path d="M185.858 188.767C185.191 190.729 184.391 192.644 183.465 194.498C183.465 194.498 183.29 194.952 183.849 195.109C183.849 195.109 184.233 195.109 184.618 194.638C184.618 194.638 185.981 192.489 187.466 189.553L186.417 193.048C186.413 193.166 186.449 193.281 186.518 193.377C186.588 193.472 186.688 193.54 186.802 193.572C186.943 193.611 187.094 193.595 187.224 193.527C187.354 193.459 187.453 193.343 187.501 193.205L189.248 189.711C189.248 189.711 192.235 185.972 191.379 183.998C187.885 179.368 182.521 182.74 182.521 182.74C181.735 183.072 180.914 183.351 180.128 183.648L179.499 183.893C178.538 184.225 178.678 184.924 178.678 184.924C178.743 185.148 178.891 185.34 179.092 185.46C179.293 185.58 179.532 185.619 179.761 185.57L184.094 184.644L179.918 192.052C179.918 192.052 179.167 193.292 179.918 193.677C179.918 193.677 180.32 194.026 181.124 192.803L184.845 187.265C184.845 187.265 182.119 192.663 181.106 194.253C181.106 194.253 180.862 195.092 181.822 195.092C181.822 195.092 182.382 195.092 182.941 193.851C182.941 193.851 185.596 189.379 185.858 188.61" fill="#FBB88E"/>
<path d="M218.038 156.325L188.042 186.862L185.107 182.757L209.303 149.721C209.303 149.721 213.094 144.148 218.038 146.786C218.038 146.786 222.702 151.625 218.038 156.325Z" fill="#FBB88E"/>
<path d="M183.447 178.669C183.892 181.004 184.998 183.161 186.633 184.886C188.268 186.611 190.364 187.83 192.671 188.4V204.018H176.791C176.791 204.018 172.057 183.299 183.447 178.669Z" fill="#141C26"/>
<path d="M219.837 149.477L206.804 107.671C206.804 107.671 205.057 100.299 198.908 101.521C198.908 101.521 188.985 102.779 191.239 112.597L207.94 153.844C207.94 153.844 211.015 160.483 217.199 156.238C217.199 156.255 221.584 154.875 219.837 149.477Z" fill="#141C26"/>
<path d="M160.089 96.787V156.325C155.276 144.337 152.159 131.736 150.83 118.887L156.071 116.388L149.083 110.134C149.083 110.134 149.52 97.6605 160.089 96.787Z" fill="#2C3C45"/>
<path d="M180.861 96.787V156.325C185.665 144.334 188.782 131.734 190.121 118.887L184.88 116.388L191.868 110.134C191.868 110.134 191.448 97.6605 180.861 96.787Z" fill="#2C3C45"/>
<path d="M170.031 94.7431H165.209L156.124 97.7307L165.209 103.776L170.031 94.7431Z" fill="white"/>
<path d="M156.124 97.7307L165.209 103.776L170.031 94.7431L165.279 101.207L156.124 97.7307Z" fill="#B6E4FA"/>
<path d="M169.716 94.7431H176.249L185.351 97.7305L176.337 102.814L169.716 94.7431Z" fill="white"/>
<path d="M185.351 97.7305L176.337 102.814L169.716 94.7431L176.267 100.264L185.351 97.7305Z" fill="#B6E4FA"/>
<path d="M172.214 102.832H168.929V175.35H172.214V102.832Z" fill="#E6E7E8"/>
<path d="M168.93 99.8621C168.031 98.5485 166.845 97.4567 165.462 96.6697C164.079 95.8826 162.534 95.4209 160.946 95.3196C160.946 95.3196 157.452 102.972 162.064 107.13C162.064 107.13 167.305 106.117 168.93 102.937V99.8621Z" fill="#141C26"/>
<g style="mix-blend-mode:multiply">
<path d="M162.99 105.628C159.653 102.623 160.561 97.8005 161.243 95.3545C161.12 95.3449 160.998 95.3449 160.876 95.3545C160.876 95.3545 157.381 103.007 161.994 107.165C161.994 107.165 167.235 106.152 168.86 102.972V102.78C167.178 104.215 165.158 105.195 162.99 105.628Z" fill="#A7A9AC"/>
</g>
<path d="M168.598 100.561L168.388 100.456L168.126 100.316L167.794 100.176L167.41 100.019L166.956 99.8444C166.659 99.7221 166.309 99.6173 165.995 99.5124C165.831 99.4442 165.661 99.3915 165.488 99.3552L164.999 99.198L164.545 99.0407L164.125 98.9359C163.619 98.7786 163.287 98.6389 163.287 98.6389C163.583 98.6192 163.881 98.6192 164.178 98.6389C164.457 98.6389 164.772 98.6389 165.104 98.7786C165.436 98.9184 165.785 98.9359 166.117 99.0582L166.641 99.2329C166.803 99.298 166.961 99.3739 167.113 99.46C167.396 99.5818 167.666 99.7341 167.916 99.9143C168.022 99.9814 168.121 100.057 168.214 100.141L168.441 100.334L168.598 100.561Z" fill="#000512"/>
<path d="M168.598 102.15L168.441 102.343L168.214 102.535L167.916 102.762C167.666 102.942 167.396 103.094 167.113 103.216L166.641 103.443L166.117 103.618C165.786 103.735 165.448 103.829 165.104 103.898C164.772 103.898 164.457 104.002 164.178 104.037C163.881 104.057 163.583 104.057 163.287 104.037C163.287 104.037 163.619 103.898 164.125 103.74L164.545 103.618L164.999 103.478L165.488 103.321C165.661 103.285 165.831 103.232 165.995 103.164C166.309 103.059 166.659 102.954 166.956 102.832L167.41 102.657L167.794 102.5L168.126 102.36L168.388 102.238L168.598 102.15Z" fill="#000512"/>
<path d="M163.793 101.207H164.003H164.562H165.313H166.204C166.501 101.207 166.798 101.207 167.078 101.207C167.334 101.188 167.591 101.188 167.846 101.207C168.097 101.192 168.348 101.192 168.598 101.207C168.356 101.278 168.111 101.336 167.864 101.382L167.095 101.504H166.658H166.204H165.313C165.055 101.477 164.798 101.436 164.544 101.382C164.29 101.345 164.038 101.286 163.793 101.207Z" fill="#000512"/>
<path d="M172.231 99.8621C173.128 98.5507 174.311 97.4603 175.692 96.6734C177.072 95.8864 178.613 95.4235 180.198 95.3196C180.198 95.3196 183.692 102.972 179.08 107.13C179.08 107.13 173.751 106.117 172.214 102.937L172.231 99.8621Z" fill="#141C26"/>
<g style="mix-blend-mode:multiply">
<path d="M178.154 105.628C181.491 102.623 180.583 97.8005 179.901 95.3545C180.023 95.3449 180.146 95.3449 180.268 95.3545C180.268 95.3545 183.762 103.007 179.15 107.165C179.15 107.165 173.821 106.152 172.284 102.972V102.78C173.965 104.215 175.986 105.195 178.154 105.628Z" fill="#A7A9AC"/>
</g>
<path d="M172.546 100.561L172.755 100.456L173.017 100.316L173.349 100.176L173.734 100.019L174.188 99.8444C174.485 99.7221 174.817 99.6173 175.166 99.5124C175.323 99.4418 175.487 99.3891 175.656 99.3552L176.145 99.198L176.599 99.0407L177.018 98.9359C177.525 98.7786 177.857 98.6389 177.857 98.6389C177.56 98.6192 177.263 98.6192 176.966 98.6389C176.686 98.6389 176.372 98.6389 176.04 98.7786C175.708 98.9184 175.359 98.9359 175.009 99.0582L174.502 99.2329C174.34 99.298 174.183 99.3739 174.031 99.46C173.747 99.5818 173.478 99.7341 173.227 99.9143C173.105 99.9143 173.017 100.072 172.913 100.141L172.703 100.334L172.546 100.561Z" fill="#000512"/>
<path d="M172.546 102.15L172.703 102.343L172.913 102.535L173.227 102.762C173.478 102.942 173.747 103.094 174.031 103.216L174.502 103.443L175.009 103.618C175.346 103.733 175.691 103.827 176.04 103.898C176.372 103.898 176.686 104.002 176.966 104.037C177.263 104.057 177.56 104.057 177.857 104.037C177.857 104.037 177.525 103.898 177.018 103.74L176.599 103.618L176.145 103.478L175.725 103.356C175.557 103.322 175.393 103.269 175.236 103.199C174.887 103.094 174.555 102.989 174.258 102.867L173.804 102.692L173.419 102.535L173.087 102.395L172.755 102.308L172.546 102.15Z" fill="#000512"/>
<path d="M177.35 101.207H177.141H176.581H175.813H174.939C174.642 101.207 174.345 101.207 174.066 101.207C173.81 101.188 173.553 101.188 173.297 101.207C173.047 101.192 172.796 101.192 172.546 101.207C172.787 101.278 173.032 101.336 173.279 101.382L174.048 101.504H174.485H174.939H175.83C176.089 101.477 176.345 101.436 176.599 101.382C176.854 101.345 177.105 101.286 177.35 101.207Z" fill="#000512"/>
<path d="M171.55 98.7087H169.593C168.802 98.7087 168.161 99.3502 168.161 100.141V102.5C168.161 103.291 168.802 103.933 169.593 103.933H171.55C172.341 103.933 172.983 103.291 172.983 102.5V100.141C172.983 99.3502 172.341 98.7087 171.55 98.7087Z" fill="#141C26"/>
<g style="mix-blend-mode:multiply">
<path d="M172.336 103.461H170.589C170.426 103.468 170.264 103.443 170.11 103.387C169.957 103.331 169.817 103.245 169.696 103.135C169.576 103.025 169.479 102.892 169.411 102.744C169.342 102.596 169.303 102.436 169.296 102.273V100.351C169.303 100.188 169.342 100.028 169.411 99.8801C169.479 99.7322 169.576 99.5992 169.696 99.4889C169.817 99.3785 169.957 99.293 170.11 99.237C170.264 99.1811 170.426 99.1559 170.589 99.163H172.336H172.616C172.484 99.0091 172.321 98.8857 172.137 98.8012C171.953 98.7167 171.753 98.6733 171.55 98.6738H169.593C169.213 98.6738 168.849 98.8247 168.58 99.0934C168.312 99.3621 168.161 99.7265 168.161 100.106V102.482C168.161 102.862 168.312 103.227 168.58 103.496C168.849 103.764 169.213 103.915 169.593 103.915H171.55C171.753 103.916 171.953 103.872 172.137 103.788C172.321 103.703 172.484 103.58 172.616 103.426L172.336 103.461Z" fill="#A7A9AC"/>
</g>
<path d="M192.741 183.09L196.585 179.036L189.911 173.55L186.504 178.058L192.741 183.09Z" fill="white"/>
<path d="M218.038 146.786C216.547 145.627 214.685 145.051 212.8 145.167C210.915 145.283 209.138 146.082 207.8 147.415L186.958 176.276C188.705 177.568 193.056 181.045 194.61 182.495L218.038 156.29C222.702 151.625 218.038 146.786 218.038 146.786Z" fill="#141C26"/>
<path d="M106.702 204.595L110.545 200.542L103.871 195.038L100.464 199.563L106.702 204.595Z" fill="white"/>
<path d="M109.339 204.018L144.402 163.837L149.136 115.113C149.381 109.75 142.462 108.719 142.462 108.719C140.638 108.628 138.848 109.238 137.458 110.423C136.068 111.608 135.183 113.28 134.985 115.096L131.177 160.518L100.464 196.82L109.339 204.018Z" fill="#141C26"/>
<path d="M143.685 72.6087L144.961 77.6054C144.961 77.6054 154.29 76.1553 154.849 72.2068C151.175 71.1941 147.278 71.3344 143.685 72.6087Z" fill="white"/>
<path d="M178.538 80.9592C169.887 85.2453 160.722 88.4041 151.267 90.358C145.065 92.5767 145.1 87.5104 145.1 87.5104C147.371 82.1821 145.1 79.6314 145.1 79.6314C142.864 77.3778 143.353 76.8188 143.353 76.8188C147.351 76.5792 151.178 75.1085 154.307 72.6085C150.882 72.8802 147.442 72.8802 144.017 72.6085C142.13 72.2591 143.039 70.8615 143.039 70.8615C143.434 69.7903 143.583 68.6439 143.476 67.5073C142.037 67.2753 140.626 66.8947 139.265 66.3717C135.597 64.9566 137.029 63.1747 137.029 63.1747L142.27 57.9337C142.726 57.5726 143.105 57.1235 143.383 56.613C143.662 56.1025 143.835 55.5412 143.892 54.9625C143.949 54.3838 143.889 53.7995 143.715 53.2444C143.542 52.6894 143.258 52.175 142.882 51.7318C142.144 45.0829 143.358 38.363 146.376 32.3925C146.376 32.3925 150.778 23.5527 168.842 20.2858C168.842 20.2858 200.742 15.0448 200.445 45.5998C200.346 52.9269 198.255 60.0889 194.396 66.3179C190.536 72.547 185.055 77.6083 178.538 80.9592Z" fill="#FBB88E"/>
<path d="M150.062 53.9857C150.062 54.4722 149.869 54.9388 149.525 55.2828C149.181 55.6269 148.714 55.8201 148.228 55.8201C147.741 55.8201 147.274 55.6269 146.93 55.2828C146.586 54.9388 146.393 54.4722 146.393 53.9857C146.393 53.4991 146.586 53.0325 146.93 52.6885C147.274 52.3445 147.741 52.1512 148.228 52.1512C148.714 52.1512 149.181 52.3445 149.525 52.6885C149.869 53.0325 150.062 53.4991 150.062 53.9857Z" fill="#291200"/>
<path d="M150.254 53.1994C150.254 53.3667 150.204 53.5302 150.11 53.6687C150.016 53.8073 149.883 53.9146 149.728 53.977C149.573 54.0393 149.402 54.0537 149.239 54.0184C149.075 53.9831 148.926 53.8997 148.81 53.7789C148.694 53.6581 148.617 53.5054 148.589 53.3405C148.561 53.1756 148.582 53.006 148.651 52.8535C148.72 52.701 148.833 52.5726 148.975 52.4848C149.118 52.397 149.283 52.3538 149.45 52.3608C149.559 52.3607 149.666 52.3826 149.766 52.4251C149.866 52.4677 149.956 52.53 150.031 52.6084C150.107 52.6868 150.165 52.7795 150.203 52.8811C150.242 52.9827 150.259 53.0909 150.254 53.1994Z" fill="white"/>
<path d="M148.996 54.3175C148.992 54.421 148.947 54.5188 148.872 54.5904C148.798 54.662 148.698 54.702 148.594 54.7019C148.514 54.7018 148.436 54.6777 148.369 54.6327C148.303 54.5878 148.252 54.5239 148.222 54.4495C148.192 54.375 148.185 54.2934 148.202 54.215C148.219 54.1366 148.259 54.0651 148.317 54.0096C148.375 53.9542 148.448 53.9174 148.527 53.9039C148.606 53.8904 148.688 53.9009 148.761 53.934C148.834 53.9671 148.895 54.0214 148.937 54.0897C148.979 54.158 149 54.2374 148.996 54.3175Z" fill="white"/>
<path d="M144.995 49.3037C144.729 48.7608 144.673 48.1384 144.838 47.5566C147.785 46.6183 150.98 46.8433 153.766 48.1855C153.831 48.5249 153.801 48.8756 153.679 49.1989L153.224 50.0899C153.147 50.1943 153.045 50.2782 152.927 50.3345C150.597 49.1784 147.905 48.9839 145.432 49.7929C145.236 49.6827 145.083 49.5107 144.995 49.3037Z" fill="#291200"/>
<path d="M145.607 34.1745C145.607 34.1745 149.311 30.5407 157.609 34.1745C157.609 34.1745 166.781 38.1402 165.121 55.1385C165.121 55.1385 178.817 54.3174 175.446 69.9007C175.446 69.9007 175.446 72.2592 182.084 80.1556C182.923 81.1689 192.392 70.9664 192.828 70.3724C198.751 62.3886 203.607 50.7361 202.489 40.6734C201.284 29.5799 191.274 17.9623 180.058 15.7262C180.058 15.6563 152.123 10.2755 145.607 34.1745Z" fill="#291200"/>
<path d="M167.864 58.4578C167.305 62.7205 169.017 66.4591 171.69 66.8259C174.363 67.1928 177.018 64.0133 177.577 59.8379C178.136 55.6626 176.424 51.8367 173.751 51.4698C171.078 51.1029 168.44 54.1951 167.864 58.4578Z" fill="#FBB88E"/>
<g style="mix-blend-mode:multiply">
<path d="M171.148 57.1828C171.148 57.1828 171.148 56.9557 171.253 56.5538C171.371 56.0216 171.553 55.5054 171.794 55.0164C172.091 54.4398 172.581 53.7759 173.262 53.7235C173.43 53.7063 173.6 53.7063 173.769 53.7235L174.048 53.8283C174.048 53.8283 174.17 53.8283 174.24 53.9681C174.549 54.2045 174.79 54.5178 174.939 54.8766C175.127 55.2507 175.257 55.6513 175.324 56.0646C175.408 56.4665 175.444 56.8772 175.428 57.2876C175.428 57.7069 175.428 58.1612 175.306 58.5281C175.184 58.895 175.184 59.2619 175.131 59.5938C175.042 59.8978 174.972 60.2071 174.922 60.5198C174.922 60.7819 174.765 61.0264 174.73 61.2186C174.695 61.4108 174.555 61.8301 174.555 61.8301L174.887 61.2885C174.974 61.0963 175.114 60.8867 175.219 60.6246C175.324 60.3625 175.481 60.0655 175.603 59.7336C175.725 59.4016 175.83 59.0173 175.953 58.6154C176.057 58.2076 176.133 57.7932 176.18 57.375C176.267 56.8955 176.267 56.4043 176.18 55.9249C176.093 55.4313 175.946 54.9502 175.743 54.4922C175.518 54.0029 175.169 53.5811 174.73 53.2693C174.616 53.1755 174.486 53.1043 174.345 53.0596C174.227 53.0084 174.104 52.9675 173.978 52.9373C173.712 52.8936 173.441 52.8936 173.175 52.9373C172.674 53.0265 172.225 53.301 171.917 53.706C171.673 54.0344 171.484 54.4003 171.358 54.7892C171.181 55.3542 171.098 55.9445 171.113 56.5364C171.103 56.7525 171.114 56.9691 171.148 57.1828Z" fill="#BCBEC0"/>
</g>
<g style="mix-blend-mode:multiply">
<path d="M171.148 57.1826C171.148 57.1826 170.886 56.7458 172.616 56.5886C172.616 56.5886 174.59 56.8506 173.577 58.9821C173.364 59.4414 173.2 59.9215 173.087 60.4147C172.965 61.1311 173.332 62.1619 172.913 62.7384C172.75 62.9111 172.545 63.0379 172.319 63.106C172.092 63.1741 171.851 63.181 171.62 63.126C171.39 63.071 171.178 62.9562 171.006 62.793C170.834 62.6298 170.708 62.4242 170.641 62.1968C170.519 61.4805 171.34 60.24 171.725 59.7334C171.869 59.5327 171.969 59.3037 172.018 59.0615C172.068 58.8193 172.065 58.5693 172.01 58.3283C171.956 58.0872 171.851 57.8604 171.702 57.6629C171.554 57.4654 171.365 57.3017 171.148 57.1826Z" fill="#BCBEC0"/>
</g>
<g style="mix-blend-mode:multiply">
<path d="M170.642 62.1265L170.502 62.2314C170.401 62.3497 170.324 62.486 170.275 62.6332C170.255 62.7371 170.255 62.8438 170.275 62.9477C170.248 63.0626 170.248 63.1822 170.275 63.2971C170.275 63.4194 170.275 63.5417 170.275 63.664C170.316 63.7906 170.369 63.9133 170.432 64.0309C170.498 64.1426 170.574 64.2479 170.659 64.3454L170.939 64.5725C171.093 64.7259 171.286 64.8346 171.498 64.887C171.69 64.9492 171.89 64.9845 172.092 64.9918C172.004 64.8107 171.905 64.6356 171.795 64.4677C171.732 64.4077 171.674 64.3434 171.62 64.2755C171.586 64.1925 171.539 64.1157 171.48 64.0484C171.444 63.9676 171.39 63.896 171.323 63.8387C171.323 63.8387 171.323 63.664 171.201 63.5941C171.106 63.4503 171.024 63.2983 170.956 63.1399L170.869 62.8953C170.869 62.8953 170.869 62.738 170.869 62.6681C170.781 62.493 170.705 62.312 170.642 62.1265Z" fill="#BCBEC0"/>
</g>
<path d="M173.21 77.2731C172.511 72.2068 169.558 66.2495 169.069 63.0175C168.506 59.257 168.762 55.4191 169.82 51.7668C168.737 51.7668 166.414 51.7668 165.313 51.7668C165.136 55.8693 164.68 59.955 163.95 63.9959C163.479 66.5465 163.426 70.9839 159.845 72.0321C156.264 73.0803 155.076 69.6037 151.442 69.0622C149.324 68.5705 147.099 68.9081 145.223 70.0055C143.685 71.0537 143.685 70.3724 143.371 69.6911C143.284 70.1106 143.173 70.5248 143.039 70.9315C143.039 70.9315 142.13 72.2592 144.017 72.6785C147.442 72.9501 150.882 72.9501 154.307 72.6785C151.211 75.171 147.424 76.6529 143.458 76.9237C143.458 76.9237 142.899 77.4827 145.205 79.7364C145.205 79.7364 147.459 82.287 145.205 87.6153C145.205 87.6153 145.205 92.6816 151.372 90.4629C157.482 89.3385 163.493 87.732 169.349 85.6587C173.035 84.2436 173.734 81.0117 173.21 77.2731Z" fill="#291200"/>
<path d="M143.79 78.0422L143.441 77.4831C143.39 77.3766 143.349 77.2654 143.318 77.1511C143.3 77.0883 143.3 77.0218 143.318 76.959V76.8716C143.336 76.8588 143.358 76.8519 143.38 76.8519C143.401 76.8519 143.423 76.8588 143.441 76.8716L143.336 76.7668L144.769 76.4348C145.252 76.351 145.73 76.2402 146.201 76.1029L147.581 75.6836C148.071 75.5438 148.507 75.3341 148.962 75.1594C149.416 74.9847 149.853 74.81 150.272 74.5829C150.691 74.3557 151.146 74.1636 151.565 73.919C151.984 73.6744 152.403 73.4472 152.788 73.1502C153.173 72.8888 153.54 72.6028 153.888 72.2941L154.22 73.0804C152.106 73.0804 149.975 73.2026 147.843 73.0804L146.254 72.993C145.715 72.9761 145.178 72.9235 144.646 72.8358C144.091 72.8003 143.552 72.6326 143.074 72.3466C142.946 72.271 142.841 72.1636 142.767 72.035C142.694 71.9064 142.655 71.7609 142.655 71.6128C142.665 71.3388 142.763 71.0754 142.934 70.8615C142.805 71.0829 142.755 71.3419 142.794 71.5953C142.802 71.7169 142.843 71.8339 142.915 71.9328C142.986 72.0317 143.083 72.1085 143.196 72.1544C143.421 72.2655 143.663 72.3365 143.912 72.364H144.681C145.205 72.364 145.729 72.364 146.254 72.364H147.843C148.892 72.364 149.957 72.2767 151.006 72.2243L154.186 72.0845H155.443L154.517 72.9231C154.127 73.2619 153.713 73.5714 153.277 73.8491C152.875 74.1461 152.421 74.3732 151.984 74.6353C151.542 74.8754 151.087 75.0912 150.621 75.2817C150.164 75.4983 149.691 75.6794 149.206 75.8233C148.738 75.9976 148.259 76.1435 147.774 76.2601L146.323 76.5746C145.835 76.6869 145.339 76.7571 144.838 76.7842L143.353 76.9415L143.249 76.8366H143.353C143.343 76.8827 143.343 76.9304 143.353 76.9764V77.2734L143.79 78.0422Z" fill="#FBB88E"/>
<path d="M148.21 29.3353C148.21 29.3353 144.244 20.775 138.829 21.5961C138.829 21.5961 140.925 16.687 150.254 19.1503C150.1 17.2227 149.268 15.4121 147.905 14.04C146.543 12.6678 144.738 11.8231 142.812 11.6557C154.024 8.85378 165.868 10.1229 176.232 15.237L148.21 29.3353Z" fill="#291200"/>
<path d="M189.701 24.6887C189.701 24.6887 196.952 24.5489 197.616 18.3641C197.616 18.3641 202.979 25.2303 197.616 31.9567L189.701 24.6887Z" fill="#291200"/>
</svg>
